<svg version="1.1" id="Layer_1" xmlns="http://www.w3.org/2000/svg" xmlns:xlink="http://www.w3.org/1999/xlink" x="0px" y="0px"
	width="100%" viewBox="0 0 512 512" enable-background="new 0 0 512 512" xml:space="preserve">

<path fill="#FFFFFF" opacity="1.000000" stroke="none" 
	d="
M1.000000,279.468658 
	C2.231508,277.918091 3.815041,277.052826 4.636254,275.718414 
	C9.267280,268.193329 16.366243,265.100952 24.700180,265.066864 
	C62.174995,264.913452 99.650993,264.930389 137.126129,265.038361 
	C149.947952,265.075317 160.787643,275.463898 160.892654,288.487274 
	C161.196167,326.126831 161.186905,363.771851 160.899963,401.411652 
	C160.797699,414.825531 150.643478,425.073425 137.266693,425.036377 
	C99.624985,424.932190 61.982185,424.882446 24.341200,425.078461 
	C14.296122,425.130768 7.876909,420.147369 2.991624,412.143341 
	C2.710094,411.682037 2.168076,411.379791 1.373645,411.001770 
	C1.000000,367.312439 1.000000,323.624878 1.000000,279.468658 
M16.000002,292.798035 
	C16.000002,313.444214 16.000002,334.090393 16.000000,354.736572 
	C15.999999,368.889221 15.855891,383.043945 16.058809,397.193665 
	C16.165512,404.634277 18.739231,409.293457 27.602060,409.182800 
	C63.061394,408.740021 98.531914,408.780975 133.992477,409.171906 
	C141.733688,409.257233 145.068192,405.376129 145.046402,397.959137 
	C144.942673,362.661072 145.001022,327.362549 144.999222,292.064178 
	C144.998825,284.307587 141.727646,281.001617 134.047104,281.001068 
	C98.915237,280.998657 63.783379,280.999969 28.651516,281.000000 
	C19.293106,281.000000 17.569283,282.481873 16.000002,292.798035 
z"/>
<path fill="#FFFFFF" opacity="1.000000" stroke="none" 
	d="
M513.000000,410.531311 
	C512.102966,411.736877 510.965240,412.312683 510.347290,413.236328 
	C505.557373,420.395691 499.551636,425.084839 490.343689,425.053619 
	C452.523743,424.925323 414.702759,424.899780 376.882996,425.052979 
	C363.183960,425.108459 354.075012,414.683624 353.070190,402.050262 
	C352.648804,396.752289 352.932526,391.391754 353.019806,386.061676 
	C353.100189,381.152069 356.977661,376.647308 361.104309,377.076935 
	C366.129883,377.600159 369.357086,380.113739 369.048096,386.092682 
	C368.807648,390.745331 368.758575,395.436035 369.061188,400.081390 
	C369.438385,405.871460 372.743500,409.161346 378.146240,409.125122 
	C414.132294,408.883850 450.120728,409.000000 486.108398,409.000000 
	C494.880463,408.999969 497.980072,405.922699 497.989441,396.973602 
	C498.018372,369.316437 498.000000,341.659241 498.000000,314.002045 
	C498.000000,307.004456 498.071899,300.005920 497.982452,293.009460 
	C497.861786,283.571442 493.624268,280.809906 485.968018,280.872559 
	C450.649139,281.161469 415.326599,280.998810 380.005371,281.000946 
	C372.278656,281.001434 369.001892,284.284424 369.000885,292.023621 
	C368.998199,312.183380 369.003143,332.343140 368.997803,352.502899 
	C368.996429,357.690247 366.228912,360.929779 361.773224,360.999969 
	C356.118652,361.089020 353.018982,358.082153 353.011230,352.312897 
	C352.982849,331.153534 352.825806,309.992126 353.064819,288.835419 
	C353.209869,275.996460 363.928741,264.972961 376.950195,264.986603 
	C413.604279,265.024994 450.258636,265.075226 486.912354,264.953033 
	C497.565247,264.917511 505.860077,268.604248 511.070251,278.223846 
	C511.360016,278.758820 511.953400,279.129364 512.702759,279.288208 
	C513.000000,322.687561 513.000000,366.375122 513.000000,410.531311 
z"/>
<path fill="#FFFFFF" opacity="1.000000" stroke="none" 
	d="
M239.000000,425.000000 
	C225.335068,425.000000 212.162674,424.726196 199.007538,425.085205 
	C188.159851,425.381287 177.141312,414.663483 177.080124,403.302277 
	C176.871033,364.475189 176.850327,325.645355 177.091980,286.818665 
	C177.163681,275.298218 187.445145,265.160187 199.509720,265.086548 
	C237.836563,264.852661 276.165894,264.937836 314.493927,265.036438 
	C326.605804,265.067596 337.093842,276.814941 337.053680,287.823517 
	C336.914490,325.984650 337.006378,364.146606 336.996307,402.308228 
	C336.993042,414.595886 326.692322,424.985718 314.489746,424.994568 
	C289.493164,425.012695 264.496582,425.000000 239.000000,425.000000 
M193.000000,311.500000 
	C193.000000,340.980438 192.991867,370.460907 193.006577,399.941345 
	C193.009674,406.141052 195.794189,408.988708 201.896439,408.991547 
	C238.705429,409.008606 275.514404,409.010773 312.323395,408.988831 
	C318.097687,408.985382 320.987610,406.051453 320.990570,400.221191 
	C321.009216,363.412201 321.007294,326.603210 320.991730,289.794220 
	C320.989532,284.602722 317.472504,281.013275 312.350769,281.010559 
	C275.375244,280.990845 238.399673,280.986420 201.424164,281.015381 
	C196.187729,281.019470 193.051025,284.233673 193.012558,289.513977 
	C192.961594,296.508972 193.000015,303.504639 193.000000,311.500000 
z"/>
<path fill="#FFFFFF" opacity="1.000000" stroke="none" 
	d="
M195.843262,106.655701 
	C194.706299,109.329819 193.329453,111.648636 193.113602,114.070915 
	C192.715820,118.534912 193.043777,123.060211 192.988525,127.558975 
	C192.924316,132.786484 189.032471,137.466858 184.775192,136.914841 
	C180.059341,136.303391 176.463654,134.283386 177.017014,127.784714 
	C177.708801,119.660240 175.554565,111.425217 178.847931,103.360519 
	C182.207138,95.134590 190.116943,89.002922 198.830307,89.001930 
	C237.658813,88.997490 276.487762,89.102829 315.315521,88.932777 
	C325.956665,88.886177 336.817291,99.215576 336.895813,110.519371 
	C337.166534,149.512634 337.134674,188.509735 336.910309,227.503586 
	C336.850281,237.939774 326.694611,248.870682 314.665680,248.929749 
	C276.171387,249.118866 237.675110,249.109268 199.180679,248.935257 
	C187.179733,248.881027 176.888397,237.070923 176.958054,226.350403 
	C177.098785,204.687347 176.996155,183.022720 177.002792,161.358749 
	C177.004395,156.142532 179.757156,153.037766 184.367981,153.000031 
	C189.821228,152.955399 192.970108,155.896225 192.981903,161.331558 
	C193.026749,181.995544 192.996429,202.659714 193.001984,223.323807 
	C193.003860,230.331345 195.697113,232.997772 202.769028,232.998428 
	C238.597916,233.001801 274.426788,233.002411 310.255676,232.998077 
	C317.972168,232.997147 320.999878,229.936218 320.999939,222.176132 
	C321.000092,186.347244 321.002228,150.518372 320.998108,114.689491 
	C320.997314,107.589096 318.386169,105.002228 311.226532,105.001556 
	C275.064362,104.998161 238.902161,104.976425 202.740158,105.057648 
	C200.534836,105.062607 198.331390,105.898056 195.843262,106.655701 
z"/>
<path fill="#FFFFFF" opacity="1.000000" stroke="none" 
	d="
M393.015259,344.225159 
	C395.027710,338.609467 398.863617,336.832367 404.339325,336.925537 
	C417.735718,337.153595 431.138641,337.000000 444.929077,337.000000 
	C441.145935,332.655487 437.590027,328.869720 434.387299,324.805634 
	C431.493225,321.133148 433.188934,317.580750 436.125854,315.094696 
	C439.346405,312.368591 443.244720,311.809479 446.651031,315.173767 
	C455.052551,323.471466 463.583649,331.653900 471.634949,340.281830 
	C474.556305,343.412384 474.039764,348.042328 471.221832,351.055847 
	C463.502106,359.311310 455.413116,367.231232 447.271057,375.077240 
	C444.070892,378.161011 438.139008,377.727386 435.256622,374.737671 
	C432.137512,371.502380 432.496002,367.024292 436.284851,363.221954 
	C439.433716,360.061920 442.674530,356.993500 446.784882,353.000000 
	C439.458679,353.000000 433.257355,353.000000 427.056030,353.000000 
	C419.067871,353.000000 411.079712,353.001923 403.091553,352.999420 
	C396.020111,352.997192 394.743927,351.936462 393.015259,344.225159 
z"/>
<path fill="#FFFFFF" opacity="1.000000" stroke="none" 
	d="
M255.365601,129.000381 
	C259.216492,128.363937 261.595184,129.859055 263.958740,132.324127 
	C271.100677,139.772873 278.512451,146.962280 285.779846,154.291595 
	C289.887878,158.434631 290.214233,163.466370 286.690796,166.788864 
	C283.227570,170.054581 278.153778,169.637573 274.173584,165.677689 
	C271.361023,162.879486 268.633575,159.995682 265.000000,156.256775 
	C265.000000,160.017578 265.000000,162.732376 265.000000,165.447174 
	C265.000000,176.769501 265.005432,188.091827 264.997833,199.414154 
	C264.993622,205.664490 262.303040,208.931793 257.135162,208.999908 
	C251.729050,209.071136 249.003342,205.790192 249.001312,199.184952 
	C248.997025,185.277573 249.000000,171.370209 249.000000,156.232941 
	C245.347672,159.989014 242.550293,162.958771 239.650665,165.825073 
	C235.722794,169.707809 230.484589,170.003189 227.145493,166.628464 
	C223.874191,163.322311 224.179565,158.394928 228.045807,154.498657 
	C235.900253,146.583176 243.795624,138.707825 251.737930,130.880692 
	C252.595428,130.035614 253.873291,129.617096 255.365601,129.000381 
z"/>
<path fill="#FFFFFF" opacity="1.000000" stroke="none" 
	d="
M70.168060,355.664062 
	C72.889626,358.409088 75.389061,360.851410 77.833054,363.347992 
	C81.315269,366.905121 81.743729,371.312683 78.973076,374.510681 
	C76.345581,377.543427 70.056244,378.279633 66.950279,375.305328 
	C58.662235,367.368835 50.524189,359.263763 42.605099,350.959961 
	C39.592537,347.801056 40.328457,342.158936 43.465790,339.012390 
	C50.986095,331.469940 58.514465,323.935486 66.060524,316.418793 
	C70.191788,312.303619 74.989403,311.873413 78.579536,315.236694 
	C81.618362,318.083496 81.423378,323.381561 78.002090,327.423737 
	C76.609604,329.068939 75.003906,330.539001 73.444908,332.036346 
	C72.019463,333.405426 70.526146,334.703827 67.998810,337.000000 
	C71.173187,337.000000 73.049553,337.000000 74.925919,337.000000 
	C87.077690,337.000000 99.229553,336.974091 111.381203,337.011810 
	C116.786598,337.028595 121.319359,340.647369 120.916260,345.034241 
	C120.455612,350.047485 118.019905,353.200500 111.491608,353.080994 
	C97.199585,352.819336 82.899467,353.000000 67.867264,353.000000 
	C68.799828,354.083160 69.360497,354.734344 70.168060,355.664062 
z"/>
<path fill="#FFFFFF" opacity="1.000000" stroke="none" 
	d="
M271.249939,374.250061 
	C268.407623,377.088226 265.818939,379.679993 263.222137,382.263550 
	C259.274994,386.190613 254.751328,386.244934 250.886673,382.388977 
	C243.341904,374.861023 235.792053,367.338043 228.279663,359.777863 
	C224.150284,355.622192 223.776642,350.629974 227.248062,347.271027 
	C230.675491,343.954651 235.765900,344.350647 239.772049,348.264313 
	C241.200882,349.660187 242.610672,351.076538 243.999374,352.512299 
	C245.381836,353.941650 246.726898,355.407135 248.691116,357.498535 
	C248.826828,355.355957 248.986588,353.989075 248.988632,352.621948 
	C249.007812,339.795898 248.988693,326.969849 249.005112,314.143768 
	C249.012558,308.324768 251.801270,305.090332 256.813049,305.000092 
	C262.119446,304.904510 264.990204,308.131744 264.995880,314.269623 
	C265.008911,328.354553 265.000000,342.439484 265.000000,357.722778 
	C268.627563,354.008240 271.432251,351.051483 274.330414,348.189392 
	C278.262115,344.306641 283.496460,343.996948 286.841827,347.359039 
	C290.122131,350.655792 289.808929,355.580811 285.963776,359.493958 
	C281.178040,364.364227 276.324341,369.167725 271.249939,374.250061 
z"/>
</svg>