<svg version="1.1" id="Layer_1" xmlns="http://www.w3.org/2000/svg" xmlns:xlink="http://www.w3.org/1999/xlink" x="0px" y="0px"
	 width="100%" viewBox="0 0 512 512" enable-background="new 0 0 512 512" xml:space="preserve">

<path fill="#FFAD36" opacity="1.000000" stroke="none" 
	d="
M1.000000,68.468658 
	C1.688232,67.197357 2.668982,66.505547 3.021288,65.575630 
	C9.399780,48.739597 21.780338,38.759609 38.834538,34.127258 
	C40.080235,33.788891 41.483032,34.003700 42.812790,34.003616 
	C106.644409,33.999474 170.476028,33.999012 234.307648,34.001606 
	C240.322525,34.001850 241.996704,35.637703 241.999985,41.468079 
	C242.003296,47.350819 240.347427,48.997826 234.371490,48.998131 
	C173.873108,49.001194 113.374687,48.957279 52.876404,49.033321 
	C39.566948,49.050049 28.544128,53.776279 21.031990,65.418167 
	C16.959480,71.729500 16.158627,78.916931 16.142460,85.876602 
	C15.928762,177.873642 15.963445,269.871368 16.040319,361.868835 
	C16.051556,375.315765 20.593742,386.706085 32.629131,394.094879 
	C38.923340,397.959015 46.042225,398.913483 53.121567,398.922302 
	C146.618912,399.038910 240.116470,399.028412 333.613800,398.906891 
	C337.803406,398.901459 340.091949,400.718079 341.540070,404.071777 
	C343.079926,407.638031 341.439392,410.633545 338.672699,412.673462 
	C337.280365,413.700043 335.053284,413.946838 333.203064,413.948822 
	C275.204681,414.011261 217.206238,414.000000 159.207794,414.000000 
	C123.042099,414.000000 86.874306,413.777832 50.711845,414.119904 
	C37.974693,414.240417 26.739809,411.140015 16.533134,402.518738 
	C16.308065,404.007019 15.996195,405.029846 16.024364,406.043213 
	C16.318546,416.626617 16.089384,427.266785 17.148787,437.775909 
	C18.440758,450.592102 31.523846,463.430695 44.556301,463.933350 
	C60.459213,464.546722 76.380981,464.945343 92.294907,464.955750 
	C215.124878,465.036102 337.954926,465.015930 460.784973,464.977386 
	C474.282776,464.973145 486.033386,460.621674 492.822083,448.317902 
	C495.741638,443.026489 497.229675,436.533600 497.779236,430.443207 
	C498.592285,421.432648 497.989410,412.294281 497.989410,404.140015 
	C490.259888,407.286011 482.692200,410.441162 475.052216,413.410309 
	C473.583069,413.981262 471.830353,413.975861 470.208191,413.977325 
	C436.709137,414.007416 403.210022,414.001221 369.710938,413.998718 
	C364.372620,413.998322 360.919342,410.965454 361.000458,406.369476 
	C361.079865,401.871521 364.569458,399.000916 369.972015,399.000671 
	C400.471191,398.999268 430.971954,399.167297 461.468384,398.878784 
	C468.814850,398.809326 476.208221,397.859009 482.599609,393.105865 
	C490.967651,386.882751 496.810577,379.479614 497.029877,368.525970 
	C497.221741,358.940826 497.947418,349.360962 497.956024,339.778351 
	C498.031891,255.447342 498.031311,171.116226 497.968201,86.785210 
	C497.958038,73.204636 493.729065,61.553967 481.489471,53.999813 
	C475.194946,50.114891 468.119232,49.089737 461.032410,49.075459 
	C397.034424,48.946507 333.035950,48.971245 269.037903,49.082851 
	C265.753876,49.088573 262.812683,47.973827 262.382477,45.321354 
	C261.882721,42.240097 263.007568,38.749531 264.060150,35.651672 
	C264.373566,34.729317 266.815674,34.068092 268.283264,34.066448 
	C336.448029,33.990082 404.613770,33.834015 472.776520,34.210426 
	C481.285583,34.257412 489.028320,38.669495 495.846222,44.246021 
	C503.824768,50.771893 508.610596,59.281609 512.674011,68.294449 
	C513.000000,193.687561 513.000000,319.375122 512.674011,445.236877 
	C508.894165,452.444916 506.099823,459.690125 500.310303,465.539337 
	C491.881744,474.054749 482.132599,479.854675 470.273041,479.871307 
	C328.120056,480.070465 185.966721,480.000183 43.813480,479.996552 
	C42.483994,479.996521 41.099510,480.178650 39.833290,479.881378 
	C21.969839,475.687439 9.282722,465.501068 2.965856,447.935486 
	C2.685369,447.155518 1.672007,446.639130 1.000003,446.000000 
	C1.000000,320.312439 1.000000,194.624878 1.000000,68.468658 
z"/>
<path fill="#FFAD36" opacity="1.000000" stroke="none" 
	d="
M267.000000,219.000000 
	C243.001999,219.000000 219.503693,218.928513 196.006119,219.029709 
	C183.989349,219.081467 181.634171,215.160431 181.944336,204.946625 
	C182.212326,196.122192 182.146896,187.278534 181.869141,178.454697 
	C181.817062,176.799774 180.420471,174.528549 178.993561,173.776520 
	C177.774292,173.133942 175.158615,173.701263 173.951553,174.694580 
	C159.449936,186.628357 145.069168,198.709778 130.711639,210.817596 
	C119.457993,220.307877 108.237480,229.838547 97.088310,239.451096 
	C91.720039,244.079468 92.149551,245.878265 97.526619,250.264404 
	C105.781509,256.998016 113.770012,264.071838 121.657257,271.237122 
	C126.041565,275.220123 126.194153,278.903656 122.773071,282.703400 
	C119.148254,286.729492 115.385109,286.723175 110.905548,283.210785 
	C101.906212,276.154510 93.020432,268.880249 84.708733,261.037872 
	C73.274979,250.249710 74.892120,235.763748 88.368858,225.165085 
	C96.058304,219.117798 103.498489,212.751923 111.011177,206.481888 
	C121.293411,197.900406 131.532104,189.266754 141.800354,180.668457 
	C149.935822,173.856110 157.895920,166.814606 166.292694,160.340195 
	C173.049164,155.130569 180.879486,155.959869 187.843155,159.581253 
	C194.507462,163.046921 198.136414,169.164490 198.026382,177.106964 
	C197.909119,185.572510 198.000000,194.040909 198.000000,202.752350 
	C249.699692,202.752350 301.101776,202.752350 353.000000,202.752350 
	C353.000000,197.439651 353.000000,192.162384 353.000000,186.885132 
	C353.000000,169.219971 353.344360,151.545685 352.877289,133.892883 
	C352.572815,122.384636 361.009827,115.285706 371.378571,115.079880 
	C386.871155,114.772339 402.394623,114.512535 417.866577,115.155434 
	C430.082245,115.663033 436.374207,121.950943 436.854950,134.297287 
	C437.457489,149.772522 437.031586,165.289108 436.981262,180.787628 
	C436.965576,185.623260 433.052612,189.828171 428.659912,189.989014 
	C424.050018,190.157791 421.008057,186.482040 421.003601,180.677185 
	C420.992584,166.345078 421.004395,152.012955 420.997986,137.680847 
	C420.995239,131.513718 420.516266,131.008575 414.578613,131.003540 
	C401.246399,130.992264 387.911041,131.164062 374.583832,130.905884 
	C370.255981,130.822052 368.858032,131.977951 368.898682,136.470062 
	C369.114288,160.299408 369.001495,184.131760 368.999115,207.963058 
	C368.998352,215.632568 365.702728,218.984833 357.991608,218.990662 
	C327.827728,219.013474 297.663879,219.000000 267.000000,219.000000 
z"/>
<path fill="#FFAD36" opacity="1.000000" stroke="none" 
	d="
M164.748062,328.295868 
	C159.170502,323.719696 153.834793,319.442108 148.590775,315.054932 
	C145.441422,312.420166 142.346909,309.706329 139.385590,306.863586 
	C135.135284,302.783539 134.712372,298.039886 138.076935,294.446381 
	C141.266724,291.039520 145.764587,291.059265 150.269577,294.850037 
	C157.789978,301.178192 165.101410,307.756104 172.670837,314.023468 
	C174.154678,315.252075 176.499832,316.313202 178.289780,316.103424 
	C181.296494,315.751160 182.124268,313.278442 182.063629,310.221344 
	C181.885193,301.225494 182.102188,292.222351 181.971313,283.224884 
	C181.839813,274.184143 185.401291,270.874023 193.972031,270.897400 
	C261.633545,271.082062 329.296112,270.886017 396.957520,271.092285 
	C411.183289,271.135651 420.609985,260.902649 420.950836,247.313095 
	C421.201447,237.320068 420.994019,227.315720 421.002716,217.316406 
	C421.006683,212.745590 423.684753,209.288818 427.411072,209.000427 
	C432.786041,208.584427 436.844299,210.804214 436.744202,215.890457 
	C436.434662,231.615707 439.775696,247.707458 433.919861,262.973694 
	C429.165436,275.368591 420.221008,283.581635 406.754059,285.954865 
	C403.070068,286.604065 399.283142,286.954010 395.542999,286.957397 
	C330.714172,287.016571 265.885284,287.000153 201.056427,287.000244 
	C200.240540,287.000244 199.424652,287.000214 198.000000,287.000214 
	C198.000000,295.264984 197.629974,303.381073 198.098145,311.448486 
	C198.626572,320.554443 194.064270,326.621552 186.824188,330.464508 
	C179.545593,334.327942 171.896774,333.721893 164.748062,328.295868 
z"/>
</svg>