<?xml version="1.0" standalone="no"?>
<!DOCTYPE svg PUBLIC "-//W3C//DTD SVG 20010904//EN"
 "http://www.w3.org/TR/2001/REC-SVG-20010904/DTD/svg10.dtd">
<svg version="1.0" xmlns="http://www.w3.org/2000/svg"
 width="126.000000pt" height="142.000000pt" viewBox="0 0 126.000000 142.000000"
 preserveAspectRatio="xMidYMid meet">

<g transform="translate(0.000000,142.000000) scale(0.100000,-0.100000)"
fill="pink" stroke="none">
<path d="M490 1255 c0 -35 0 -35 -47 -36 -27 -1 -58 0 -70 1 -20 1 -23 -3 -23
-39 0 -40 -1 -41 -35 -41 -33 0 -35 -2 -35 -35 0 -34 -1 -35 -40 -35 l-40 0 0
-145 0 -145 -35 0 -35 0 2 -247 3 -248 33 -3 c23 -2 32 -8 33 -23 1 -10 2 -25
3 -31 1 -9 24 -14 69 -16 l67 -3 0 35 c0 33 2 35 38 38 35 3 37 5 40 41 3 35
5 37 37 37 32 0 34 -2 37 -37 3 -35 6 -38 36 -41 29 -3 32 -6 32 -38 l0 -34
70 0 70 0 0 34 c0 33 2 35 38 38 35 3 37 5 40 41 3 35 5 37 37 37 32 0 34 -2
37 -37 3 -35 6 -38 36 -41 29 -3 32 -6 32 -38 l0 -34 70 0 70 0 0 34 c0 33 2
35 38 38 l37 3 3 247 2 247 -37 3 -38 3 -3 143 -3 142 -34 0 c-33 0 -35 2 -35
35 0 33 -2 35 -35 35 -34 0 -35 1 -35 40 0 22 -3 39 -7 39 -5 -1 -36 -1 -70 0
l-62 1 -3 33 -3 32 -142 3 -143 3 0 -36z m68 -432 l-3 -38 -65 -1 -65 -1 -3
-72 -3 -71 69 0 c38 0 71 -2 74 -5 2 -3 3 -18 0 -35 l-4 -30 -144 0 -144 0 0
145 0 145 146 0 145 0 -3 -37z m442 3 c0 -39 -14 -46 -97 -46 l-53 0 0 -70 0
-70 75 0 75 0 0 -35 0 -35 -150 0 -150 0 0 145 0 145 150 0 150 0 0 -34z"/>
</g>
</svg>
