<?xml version="1.0" encoding="UTF-8"?>
<svg version="1.1" viewBox="0 0 1736 1352" width="434" height="338" xmlns="http://www.w3.org/2000/svg">
<path transform="translate(855,175)" d="m0 0h26l28 2 31 4 32 6 30 8 26 9 27 11 33 16 21 12 19 12 20 14 13 10 14 12 10 9 17 16 14 14 2 5 1 1 47 1v28l89-24 20-5h3l1 7v533l-1 83h-7l-83-22-22-6v27l-3 2h-158l-1 5-4 68-2 16-3 11-6 11-11 14-7 8-4 2-5 12-12 36-8 20-6 11-9 11-9 8-10 6-16 6-12 2h-10l-13-2-15-5-11-6-11-9-9-11-8-16-4-14v-26l4-14 1-6-8-6-7-7-10-13-7-14-4-15-2-10-1 1-3 16-8 18-8 12-8 10-10 8h-2l5 14 2 12v13l-3 16-4 11-8 13-11 12-10 7-10 5-12 4-11 2h-12l-15-3-15-6-12-8-11-11-9-15-10-25-12-36-4-7v-2l-4-2-10-11-11-14-4-10-4-24-2-23-2-42v-8h-161l-1-1v-22l1-6-28 7-44 12-36 10h-5v-624l16 3 69 19 26 7 1-25 2-3 53-1-5-2v-4l29-29 8-7 13-11 14-11 18-13 23-15 19-11 15-8 26-12 29-11 28-9 30-8 36-6 30-3z" fill="#000000"/>
<path transform="translate(353,336)" d="m0 0 16 3 69 19 26 7v2l5 1-1 4 2 6v4l-4-1-2-4-34-9-35-9-29-8-2-1v73l-1 525 24-8 36-10 31-9 12-2 2 5-1 6h5l3 5v14l151-1v-20h-149v-5l-3-1-1-3 4-1 88-1v-1h60l-1-5-4-89v-17l4 1 2 1 1-25 2-10-1-21 2-8 1-16v-7l2-8-1-2 4-15-1-12 3-3 1 3v10l3-4h2l2-4 19-19 20-13 15-7 13-4 9-2 10-1 51-1h184l35 1 18 3 15 5 19 10 14 10 14 14 8 11 3 5-1-17-5-43-3-15-5-14-6-12-8-10-6-7-10-8-10-6-16-7-16-4-263-1-18 1-16 4-19 9-10 8-7 6-5 1-3 1-4 5-2 5-3-2 2-4 2-2-1-2 2-3h2l2-4 4-2 3-5 4-3h2v-2l5-4 6-2v-2l7-2v-2l-4 1v-89l6-2v-6h4v-3l115-1 5-2 3-5 6-8 2-6 1-21v-30l-312-1v7l-2-4 1-5-3-3-5-1-3 4 1 2h-3l-1-2-9-1v-2l-6-1 1-4h211l31 1 54 1h58l4 1 46-1h52l29-1h161l63 1 6 1-2 6-311 1v46l1 9 3 9 6 7 7 4 7 1h18l13-2 46 1 8 1 6 2h4l-1 3-23 1v2h-75l-11-4-9-6-6-7-4-8-2-13v-46l-10 1h-26l-1 51-2 8-6 10-8 7-10 5-8 2-110 1 1 41v36l-1 7 13-4 20-3 8-1 10-17 9-12 9-10 9-9 14-10 16-8 15-6 21-5 12-1h13l17 2 19 5 20 8 11 6 14 11 11 11 15 20 8 13 1 2 25 3v2l9 3 15 3 4 2v2l5 2 9 9h4v2l5 1 5 5 5 4 5 5 10 16 3 6 3-1v-2l2-1 3-24 5-12 5-7 10-7 11-4 9-1h47l13 2 6 4 5 8 1 3v12l-3 8-5 2-5 5-10 2-32-1-5-3 3-3-7-1v-1l44-1 6-3 3-7-1-8-4-4-5-1h-44l-1 14-2-2v-7h-3l-3-3 2-1v-5l-7 1v2l-10 6-8 9-10 25 1 2 1 7-5 5-6 2 5 25 10-4 9-7 9-12 5-13-1-5 6 1 5 3v8l-5 12-8 11-7 7-11 7-8 3h-3l9 82 2 28v18l-5 110-2 28h148l-1-6 1-105 1-68 1-263 1-6v-12l2-2 2 1 1-7h2l1 357v109l-2-1-2-5-1-7-2 14-1 5-2 26h-1v-17h-149v18l149 1 3 2 2 4-2 1-6-1v2h-7l-3-1v2l10 1v1h-147l-2 41-3 44-4 16-6 11-11 14-7 8-4 2-5 12-12 36-8 20-6 11-9 11-9 8-10 6-16 6-12 2h-10l-13-2-15-5-11-6-11-9-9-11-8-16-4-14v-26l4-14 1-6-8-6-7-7-10-13-7-14-4-15-2-10-1 1-3 16-8 18-8 12-8 10-10 8h-2l5 14 2 12v13l-3 16-4 11-8 13-11 12-10 7-10 5-12 4-11 2h-12l-15-3-15-6-12-8-11-11-9-15-10-25-12-36-4-7v-2l-4-2-10-11-11-14-4-10-4-24-2-23-2-42v-8h-161l-1-1v-22l1-6-28 7-44 12-36 10h-5z" fill="#000000"/>
<path transform="translate(494,369)" d="m0 0h211l31 1 54 1h58l4 1 46-1h52l29-1h161l63 1 6 1-2 6-311 1v46l1 9 3 9 6 7 7 4 7 1h18l13-2 46 1 8 1 6 2h4l-1 3-23 1v2h-75l-11-4-9-6-6-7-4-8-2-13v-46l-10 1h-26l-1 51-2 8-6 10-8 7-10 5-8 2-110 1 1 41v36l-1 7 13-4 20-3 8-1 10-17 9-12 9-10 9-9 14-10 16-8 15-6 21-5 12-1h13l17 2 19 5 20 8 11 6 14 11 11 11 15 20 8 13 1 2 25 3v2l9 3 15 3 4 2v2l5 2 9 9h4v2l5 1 5 5 5 4 5 5 10 16 3 6 3-1v-2l2-1 3-24 5-12 5-7 10-7 11-4 9-1h47l13 2 6 4 5 8 1 3v12l-3 8-5 2-5 5-10 2-32-1-5-3 3-3-7-1v-1l44-1 6-3 3-7-1-8-4-4-5-1h-44l-1 14-2-2v-7h-3l-3-3 2-1v-5l-7 1v2l-10 6-8 9-10 25 1 2 1 7-5 5-6 2 5 25 10-4 9-7 9-12 5-13-1-5 6 1 5 3v8l-5 12-8 11-7 7-11 7-8 3h-3l9 82 2 28v18l-5 110-2 28h148v1l-37 1h-108l-4-1 1 7h-3l-4-1-2 2-1-1v-39l2-73v-28l-23 5-54 9-46 6-37 3-48 2h-56l-29-1-52-4-68-10-36-7-17-4 1 36v33h-1l-2-21-2-15-1-11v-23l2-10-1-21 2-8 1-16v-7l2-8-1-2 4-15-1-12 3-3 1 3v10l3-4h2l2-4 19-19 20-13 15-7 13-4 9-2 10-1 51-1h184l35 1 18 3 15 5 19 10 14 10 14 14 8 11 3 5-1-17-5-43-3-15-5-14-6-12-8-10-6-7-10-8-10-6-16-7-16-4-263-1-18 1-16 4-19 9-10 8-7 6-5 1-3 1-4 5-2 5-3-2 2-4 2-2-1-2 2-3h2l2-4 4-2 3-5 4-3h2v-2l5-4 6-2v-2l7-2v-2l-4 1v-89l6-2v-6h4v-3l115-1 5-2 3-5 6-8 2-6 1-21v-30l-312-1v7l-2-4 1-5-3-3-5-1-3 4 1 2h-3l-1-2-9-1v-2l-6-1z" fill="#000000"/>
<path transform="translate(632,783)" d="m0 0 9 1 33 7 44 7 35 5 52 4 29 1h56l48-2 46-4 50-7 51-9 13-3 1 1v28l-2 73-3 64-2 47-3 35-3 17-5 15-8 16-4 7-1-3 3-7 4-18 5-29 3-28v-29l-5-13-7-12-9-10-10-8-11-5-15-3h-11l-14 2-12 5-12 9-9 12-8 15-13 37-25 65-10 24-2 1-11-14-10-14-8-17-2-7-5-73-1-22v-26l20 9 13 4 25 4h25l1-8 1-2h-13l-20-2-21-5-19-7-15-8-4-4-8 6-11 6-15 6-14 4-20 3-25 2 4 8 3 1h11l26-3 15-3 14-5 12-5h2l-3 41-4 73-3 17-5 12-9 13-7 7-6 5h-2l-1 2-6-12-16-38-13-36-12-36-3-8-3-7-5-9-6-3-4-5-11-7-10-4-13-2h-15l-12 2-10 4-11 7-8 8-7 11-5 12-1 6v26l3 25 6 31 6 26-1 4-8-11-6-13-5-19-3-21-4-75-2-38-3-88z" fill="#48789C"/>
<path transform="translate(855,175)" d="m0 0h26l28 2 31 4 32 6 30 8 26 9 27 11 33 16 21 12 19 12 20 14 13 10 14 12 10 9 17 16 14 14 2 5-3 1v1l-72 1-150 1-20 1h-20l-13-1-1 1-16 2-32-1h-27l-3-2 5-1-7-1-1-86-3-7-6-5-3-1h-9l-8 4-4 8-1 18-2 1-10-1v-17l2-9 4-6 7-7 9-4 4-1h8l8 3 8 6 5 6 3 8v90l3-1h9l-1-88-3-10-6-10-9-8-8-4-4-1h-20l-10 4-9 7-6 8-4 9-2 17v14l2 5 5 1h12l15-1 2-31 1-1h10v90l-30 1v1h13l8-1h21l1 2-7 1 45 1v2l-99 1h-10l-7-2v-1l-20-1v-1l29-1 3-2 1-5-1-11-2-3-1-9 2-2h5v8l-1 7h2l1 16 1-1v-28l2-1h12l2 5 1 20 3-1 2-2h3l1 3v-17l-2-9-4-6-8-4h-9l-9 4-6 9h-30l-1 11h14l17 1v15l-46 1h-199v-1l-24-1-5-2v-4l29-29 8-7 13-11 14-11 18-13 23-15 19-11 15-8 26-12 29-11 28-9 30-8 36-6 30-3z" fill="#c3751c"/>
<path transform="translate(1219,380)" d="m0 0h34l1 72 1 123-1 341-116 1h-25l-7-1v-11l4-79 2-48v-18l-3-38-7-61v-11l13-5 11-8 9-10 7-14 1-3v-7l-4-3h-4l-2 9-5 10-8 10-9 7-10 4-2-4-3-17v-5l7-4h2l1-5-2-7 5-13 5-12 9-10 8-5h2v-2l7-2 1 4-1 4 2 2h3v7l1-12 1-1h44l7 2 3 4 1 8-3 7-7 4-36 1-3 4 6 2 30 1 12-2 2-4 2-2h4l2-8v-12l-4-8-5-5-5-2-10-1h-47l-13 2-12 6-3 3h-2l-8 16-3 16-1 11-3 1v2h-2l-1 3-9-16-8-12v-115l72-1 41-1 9-3 11-8 6-9 3-8 1-7z" fill="#FAFAFA"/>
<path transform="translate(478,379)" d="m0 0 34 1 1 49 2 9 6 10 4 5 11 7 6 2 12 1h40l62 1 1 1v114l-2 7-14 21-6-4-2-8-3-19-4-10-8-10-10-6-11-2-18-1h-26l-18 1-8 4-5 7-2 6v10l4 9 8 7 8 2 41 1 5 1v-11l-1-1-46-1-7-3-3-9 2-7 5-4 9-1h39l3 14 1 2-1 2h4v-5h2l-1-9 1-2-2-1 4-1v5l2-5 7 2 8 6 6 8 1 5 3-1 2 7-1 3 5 5-2 4-4 2 3 4 1 7 12 6-3 20-2 6-15-8-8-7-6-7-5-10-2-6v-6l-3 1-2 4h-4v7l5 12 6 9 9 9 14 8 9 2h1v9l-10 72-2 18v50l5 112v5l-60 1h-87l-1-3v-370z" fill="#FAFAFA"/>
<path transform="translate(364,350)" d="m0 0 16 4 65 17 19 5 1 1v542l-18 5-52 15-27 8-5 1v-525z" fill="#BDBDBD"/>
<path transform="translate(1365,350)" d="m0 0h2v497l1 92v9l-9-2-53-15-38-11-2-3-1-119v-319l1-100 1-3 22-5 34-10 36-10z" fill="#BDBDBD"/>
<path transform="translate(744,552)" d="m0 0 263 1 16 4 16 7 10 6 14 12 11 14 7 14 5 15 4 28 4 37v8l-4-4-6-9-11-12-10-9-18-11-15-7-14-4-14-2-35-1h-184l-51 1-15 2-14 4-12 5-11 6-16 11-19 19-6 8-1-3 6-47 3-16 6-17 8-16 8-11 7-7 11-9 10-6 16-7 13-3z" fill="#525252"/>
<path transform="translate(772,650)" d="m0 0h225l17 3 15 5 16 8 11 7 15 14 10 13 9 16 2 5-1 4-55 11-32 5-41 5-38 3-51 2-2-1v-20l3-4h2l2-4 6-5 1-7-1-2-5-1-11 11-4-1-1 2-7-6-6-7-4 1-3 5 1 4 10 9 5 7v18h-29l-37-2-44-4-38-5-34-6-38-8-1-1 1-8 6-10 12-16 12-13 10-8 17-9 21-7 13-2z" fill="#F9CA96"/>
<path transform="translate(494,369)" d="m0 0h211l31 1 54 1h58l4 1 46-1h52l29-1h161l63 1 6 1-2 6-311 1v46l1 9 3 9 6 7 7 4 7 1h18l13-2 46 1 8 1 6 2h4l-1 3-23 1v2h-75l-11-4-9-6-6-7-4-8-2-13v-46l-10 1h-26l-1 51-2 8-6 10-8 7-10 5-8 2-110 1 1 41v36l-1 7 13-4 20-3 8-1 10-17 9-12 9-10 9-9 14-10 16-8 15-6 21-5 12-1h13l17 2 19 5 20 8 11 6 14 11 11 11 15 20 8 13 1 2 25 3v2l9 3 15 3 4 2v2l5 2 9 9h4v2l5 1 5 5 5 4 5 5 10 16 3 6 3-1v-2l2-1 3-24 5-12 5-7 10-7 11-4 9-1h47l13 2 6 4 5 8 1 3v12l-3 8-5 2-5 5-10 2-32-1-5-3 3-3-7-1v-1l44-1 6-3 3-7-1-8-4-4-5-1h-44l-1 14-2-2v-7h-3l-3-3 2-1v-5l-7 1v2l-10 6-8 9-10 25 1 2 1 7-5 5-6 2 4 22v5l-3-1v-4l-3-3-1-5-2-1-2-8-3-2-3-7-2-3-3-1-5-10-8-10-6-7-10-8-10-6-16-7-16-4-263-1-18 1-16 4-19 9-10 8-7 6-5 1-3 1-4 5-2 5-3-2 2-4 2-2-1-2 2-3h2l2-4 4-2 3-5 4-3h2v-2l5-4 6-2v-2l7-2v-2l-4 1v-89l6-2v-6h4v-3l115-1 5-2 3-5 6-8 2-6 1-21v-30l-312-1v7l-2-4 1-5-3-3-5-1-3 4 1 2h-3l-1-2-9-1v-2l-6-1z" fill="#000000"/>
<path transform="translate(524,379)" d="m0 0h311l1 1v30l-1 21-3 8-8 9-7 4h-275l-9-7-6-7-3-6z" fill="#BDBDBD"/>
<path transform="translate(896,379)" d="m0 0h310l1 1v43l-1 12-4 7-10 9-4 1h-268l-8-2-6-3-8-9-2-4-1-9v-22z" fill="#BDBDBD"/>
<path transform="translate(770,998)" d="m0 0 3 1 12 35 11 26 12 27 10 19 4 10 1 7v17l-4 17-7 14h-2l-1 4-12 12h-3v2h-3v2l-10 5-14 4h-14l-15-3-2-1v-2l-7-1-11-7-7-6-3-5-4-4-6-11-5-11-8-25-9-31-7-29-6-28v-6l21-6 29-8 33-10z" fill="#626566"/>
<path transform="translate(959,999)" d="m0 0 8 1 42 13 42 12 15 4v8l-6 36-12 46-8 27-7 16-4 8-4 6-5 5-13 10-13 6-11 3h-12l-11-2-16-5-10-6-1-2-5-3-8-11-7-11-4-8-2-12v-9l3-15 12-23 9-21 7-18 5-12 14-36z" fill="#626566"/>
<path transform="translate(476,347)" d="m0 0h659l118 1 1 1v17l-1 1-50 1-158 1-164-1h-134l-106 1-160-1-4-1z" fill="#F7F7F7"/>
<path transform="translate(848,379)" d="m0 0h36l1 46 2 13 6 11 8 7 11 5 14 2 102 1v19l-1 64-20-4-19-2-10-16-13-17-9-10-10-9-14-9-18-8-20-6-11-2-11-1h-13l-18 2-17 5-18 7-14 8-13 10-13 13-11 15-10 17-1 1-24 3-17 4v-84l14-1 96-1 13-4 10-7 6-8 3-6 1-6 1-51z" fill="#F9F9F9"/>
<path transform="translate(831,214)" d="m0 0h20l9 3 9 7 7 8 5 11 1 5v88l-9 1-4 1v-91l-4-10-9-8-6-3-4-1h-8l-11 4-8 7-4 6-2 9-1 17h11l1-18 4-8 6-4 3-1h9l7 4 5 6 1 4v86h9l-4 3h27l33 1 6-1h9v-7h1v6h33l30-1 140-1 76-1 47 1v19h-1l-1-12-3-2v-2h-12l-12 1 1 1 16 1 3 4-1 4-1-2-120-1h-658l-1 14-3-1-1-3-2 4-2-1-2 2v-25l1-1h322v-15h-29l-2-1v-9l1-2 30-1 5-8 7-4 3-1h9l8 4 4 5 2 5 1 6v17l-2 1v-4l-5 3h-3l-1 2-1-22-1-5-14 1 1 29h-3v-16h-2l1-15-6 2 1 9 2 3 1 15-1 1 2 2-10 1v2l-2 1 8 1h25l77-1 3 1v-2h-48l-2-2 7-1h-17l-14 1h-8l1-3h30v-90l-10 1-2 31-1 1-15 1h-12l-6-2-2-5v-14l2-17 6-12 8-9 10-6z" fill="#000000"/>
<path transform="translate(513,380)" d="m0 0 7 2v8l-1 4h-2l1 18 2 2h1l1-24h1l1 41 6 10 8 7 4 3h275l5-3 2 1 1 2-7 2-114 1-1 3h-3v5l-5 3h-1v87l4-2 3 1-4 1v2l-4 2h-3v2l-8 5-3 1v2l-7 5-2 4-5 3-4 5v3l-3 3 1 3v-2l2-2 2-3h2l1-3 6-2v3l-9 11-8 16-6 16-3 12-6 44-2 1-1-2-1 6 1 9-4 14 1 2-2 8v14l-1 9-2 10 1 20-2 9-1 23-1 2-6-2-1-6v-50l4-33 8-57v-8l-9-2-11-6-10-9-7-8-6-13-1-3v-7l6-2 1-4 4 1 1 9 5 11 6 8 9 8 13 7 2-5 3-20-12-6-2-9-2-2 2-2 2 1 2-6-5-4 1-5-2-4h-2l-5-10-7-6-8-4h-2l-1 24h-1l-1-21 1-4-3 1 1 4 1 5-2 4-1 5-4-1-2-9-1-9-39 1-9 1-5 4-1 6 3 9 6 2 46 1 2 4-1 9-46-1-10-3-7-7-4-9v-10l4-9 4-5 8-4 18-1h26l18 1 11 2 10 6 7 8 5 10 3 13 2 15 5 5 4-5 8-12 3-4 1-6v-114l-62-1h-40l-12-1-9-4-9-6-8-11-3-7z" fill="#000000"/>
<path transform="translate(852,475)" d="m0 0h29l18 3 18 6 14 8 14 12 13 13 10 13 5 7v3l-3 1-104 1h-120l2-2 9-1 4-6 12-16h2l2-4 7-8 11-9 16-10 13-5 8-3z" fill="#543106"/>
<path transform="translate(353,336)" d="m0 0 16 3 69 19 26 7v2l5 1-1 4 2 6v4l-4-1-2-4-34-9-35-9-29-8-2-1v73l-1 525 24-8 36-10 31-9 12-2 2 5-1 6h5l3 5v14h148l-4 1 1 5 2 1-1 1 3 2h-159v-22l1-6-28 7-44 12-36 10h-5z" fill="#15171B"/>
<path transform="translate(1211,368)" d="m0 0h19l-2 2 8 1h15l3 7v1h-35v48l-2 10-5 10-6 7-11 7-7 2-41 1h-72v115l-5-3-6-5v-2l-5-1v-2l-5 1-4-5-7-6-2-1v-2l-4-1-18-4-8-2 2-2 11 1 2 1 1-63 1-19h-102v-1l63-1 4-2 21-1-4-1-5-2-8-1-46-1-13 2h-18l-9-2-8-6-5-6 1-4 8 9 7 3 6 1h268l5-2 8-7 4-7 1-12v-43l-300-1v-1h301v-4h2v-2l-70-1h-37v-1l20-1h82z" fill="#000000"/>
<path transform="translate(700,933)" d="m0 0h24l12 4 12 9 7 7 7 11 5 13 2 11-8 3-26 8-27 8-26 7-16 5h-4l-3-26v-17l2-9 6-12 12-13 10-6z" fill="#636667"/>
<path transform="translate(1104,959)" d="m0 0 105 1 5 4 2 2-12 13-20 20-11 9-13 11-20 15-22 15-11 6h-5l-3-2-1-9 3-44 2-35z" fill="#c3751c"/>
<path transform="translate(539,960)" d="m0 0h88l1 8 2 42 3 31 3 16-1 4-12-6-28-19-15-11-14-11-14-12-16-15-21-21v-5z" fill="#c3751c"/>
<path transform="translate(770,758)" d="m0 0h15l40 2 31 2h31l44-2 27-1v34l-35 3-40 1h-41l-31-1-32-2-7-2-1-3v-9l1-5 1-16z" fill="#825B28"/>
<path transform="translate(1016,932)" d="m0 0 17 1 11 4 11 9 11 12 5 10 1 3v27l-3 22-26-8-34-10-37-10-9-2-1-2 8-21 6-10 8-10 9-8 12-5z" fill="#636667"/>
<path transform="translate(1262,448)" d="m0 0h2l1 357v109l-2-1-2-5-1-7-2 14-1 5-2 26h-1v-18h-150l1-7-1-2 1-2h149l-1-7 1-105 1-68 1-263 1-6v-12l2-2 2 1z" fill="#101216"/>
<path transform="translate(620,805)" d="m0 0 4 1 2 1v-2h2l2 22 2 14v11h2l2 55 5 98 2 22 3 19 5 17 7 13 5 7 3 7v5l-5-2-11-12-11-14-4-10-4-24-2-23-2-42v-8h-161v-1l153-1 2-2-2-6 7-2v-20h-149v-5l-3-1-1-3 4-1 88-1v-1h60l-1-5-4-89z" fill="#000000"/>
<path transform="translate(741,1081)" d="m0 0h9l6 5 4 1 5-6h7l5 4 3 3 8 16 8 9 2 5v8l-6 7-6 5-3 12-4 6-6 3h-9l-5-3-1-2-5 1-5 4-2 1-9-1-5-5-6-10-6-9-5-5-2-5v-7l5-10 5-4 8-16 7-6z" fill="#000000"/>
<path transform="translate(723,641)" d="m0 0h137l144 1 11 1 13 4 8 4 10 4 16 10 13 12 10 13 2 7h2l-1 7-1 4-3-1-7-11-11-13-10-9-14-9-18-8-14-4-13-2h-225l-41 1-17 3-19 7-15 8-13 11-10 11-13 18-4 7-2-3-1-6v-9l4-9 3-1 2-4 19-19 20-13 15-7 13-4h6l1 1z" fill="#131519"/>
<path transform="translate(838,224)" d="m0 0h8l8 3 8 6 5 6 3 8v90l13-2h17l1-21 3-9 5-6 8-3h9l7 3 5 6 1 5h30l1 1v8l-1 3h-28v16h50v1l-18 1h-20l-13-1-1 1-16 2-32-1h-27l-3-2 5-1-7-1-1-86-3-7-6-5-3-1h-9l-8 4-4 8-1 18-2 1-10-1v-17l2-9 4-6 7-7 9-4z" fill="#000000"/>
<path transform="translate(638,735)" d="m0 0 6 2 13 2 28 6 30 5 28 4 1 37-38-5-37-6-29-6-10-3 3-30 3-5z" fill="#825B29"/>
<path transform="translate(831,214)" d="m0 0h20l9 3 9 7 7 8 5 11 1 5v88l-9 1-4 1v-91l-4-10-9-8-6-3-4-1h-8l-11 4-8 7-4 6-2 9-1 17h11l1-18 4-8 6-4 3-1h9l7 4 5 6 1 4v85h-1l-1-34-2-4-1-6-2-4-1 15v21l-1 3 2 1h-2v6 3l-3-1v-89l-10 1-2 31-1 1-15 1h-12l-6-2-2-5v-14l2-17 6-12 8-9 10-6z" fill="#000000"/>
<path transform="translate(1138,554)" d="m0 0 3 1-1 7 2 2h3v7l1-12 1-1h44l7 2 3 4 1 8-3 7-7 4-36 1-3 4 6 2 30 1 12-2 2-4 2-2h3l-2 4-6 5-6 2-48 1-1 11-4-5-7-2 1 4-5 13-9 12-7 6-12 6-2-1-4-20v-5l7-4h2l1-5-2-7 5-13 5-12 9-10 8-5h2v-2z" fill="#000000"/>
<path transform="translate(1096,734)" d="m0 0h1l3 31v5l-5 2-37 7-28 5-42 6h-1v-34l1-1 23-3 28-5 55-11z" fill="#825B28"/>
<path transform="translate(851,275)" d="m0 0h1l1 13 2-1 1 11 2 1 1 37 9 1-4 3h27l33 1 6-1h9v-7h1v6h33l30-1 140-1 76-1 47 1v19h-1l-1-12-3-2v-2h-12l-12 1 1 1 16 1 3 4-1 4-1-2-120-1v-2l-167 1h-134v-2l19-1 42-1 3 1v-2h-48l-2-2 7-1h-17l-14 1h-8l1-3 33-1-1-4 1-10v-20z" fill="#15171B"/>
<path transform="translate(545,558)" d="m0 0h39l3 14 1 2-1 2h4v-5h2l-1-9 1-2-2-1 4-1v5l2-5 7 2 8 6 6 8 1 5 3-1 2 7-1 3 5 5-2 4-4 2 3 4 1 7 12 6-3 20-2 6-15-8-8-7-6-7-5-10-2-6v-6l-3 1-2 4h-4l-2 3-2-11h2v-11l-1-1-46-1-7-3-3-9 2-7 5-4z" fill="#000000"/>
<path transform="translate(865,1015)" d="m0 0h1l1 18 4 19 6 15 10 14 11 12 7 5-1 6-4 14-8 2h-57l-2-2-2-6-2-3-3-7v-4l11-8 9-11 8-13 7-16 3-16z" fill="#c3751c"/>
<path transform="translate(1249,339)" d="m0 0h9l3 1 3 3h1l1 21v5l2 2-1 4h-2l1 5v99h-1l-1-72-2 2-1 5-3 3-1 5-1 14-1 139h-1l-1-123v-72h-34v-1l34-1-2-6h-18l-8-2v-1h-14l-12 1h-77l-143 1-29 1h-65l-35 1-7-1h-53l-54-1-32-1h-132l-46-1v-1h128l93-1h134l165 1 157-1 50-1 1-17 2 1-1-5-3-1-14-1-2-3z" fill="#000000"/>
<path transform="translate(1095,910)" d="m0 0 2 1v13l2-2h4l2 4-1 2 63-1h82l5 1v1h-149v18l149 1 3 2 2 4-2 1-6-1v2h-7l-3-1v2l10 1v1h-147l-2 41-3 44-2-3-2 14-5-2-1-2-2 5-3-1 2-11 3-22 3-43 1-30z" fill="#000000"/>
<path transform="translate(1191,928)" d="m0 0h49l14 1 1 19h-150l-1-2 1-17z" fill="#F5F5F5"/>
<path transform="translate(477,929)" d="m0 0h149l1 19h-151v-15z" fill="#F7F7F7"/>
<path transform="translate(470,551)" d="m0 0 2 2 2-2v25l1 9v21l1 17v152l-1 44v6l1 5-1 2v16l-1 16-2 11v16h-2v13h-2l-1 9h-1v-181l1-8v-122-3l1-6-1-3h2l-2-7h1v-12l1-15z" fill="#101216"/>
<path transform="translate(859,462)" d="m0 0h13l17 2 19 5 20 8 11 6 14 11 11 11 15 20 8 13 1 2 8 1v1l-23 1-107-1v-1l107-1-5-9-10-12-7-8-10-10-13-10-14-7-15-5-18-3h-29l-20 3-7 2-4-2 5-3-10 2-14 6-14 7-6 7-4 3h-3l-2 3-8 6 2-4 14-14 14-10 16-8 15-6 21-5z" fill="#23272A"/>
<path transform="translate(668,1077)" d="m0 0h3l2 7-1 2h2l2 10h2l8 28 10 30 6 12 4 7 5 4 1 3 10 8 9 5 5 1v2l17 3h14l14-4 8-4h2v-2h3v-2l5-3 10-10 1-3h2l1-4 5-10 4-17v-17l-2-9-2-5 1-6 2 1 1-1 3 2 1 2 2-2 3 7 2 12v13l-3 16-4 11-8 13-11 12-10 7-10 5-12 4-11 2h-12l-15-3-15-6-12-8-11-11-9-15-10-25-12-36 1-4v-3l-2-11 1-2z" fill="#171A1E"/>
<path transform="translate(668,464)" d="m0 0h24v89l-11 8-13 10h-1v-75z" fill="#F9F9F9"/>
<path transform="translate(740,1092)" d="m0 0 4 1 4 3 10 1 8-3h7l2 3 2 12 2 3 6 3 4 4-1 4-8 7h-2l-3 17-2 3-4 1-7-4-1-1h-8l-7 3-2 2-4-1-2-4-3-15-10-8 1-6 3-1v-2l3-1 4-5 1-3 1-12z" fill="#F4B5AF"/>
<path transform="translate(553,546)" d="m0 0h26l18 1 9 2v2l5 2 5 3 2 6h3l2 4v3l2 1 2 6v6l-2 5h-3l1-4-2-4h-2l-5-10-7-6-8-4h-2l-1 24h-1l-1-21 1-4-3 1 1 4 1 5-2 4-1 5-4-1-2-9-1-9-39 1-9 1-5 4-1 6 3 9 6 2 46 1 2 4-1 9-46-1-10-3-7-7-4-9v-10l4-9 4-5 8-4z" fill="#000000"/>
<path transform="translate(1063,1090)" d="m0 0 1 4-3 8v8l-12 36-8 19-7 12-12 13-14 9-16 6-12 2h-10l-13-2-15-5-11-6-11-9-9-11-8-16-4-14v-26l2-8 3-1v3l4-8 1 3 1 13-2 11v9l2 12 6 12 9 12 4 6 5 3v2l5 2 7 4 17 5 8 1h12l16-5 9-5 12-9 3-4h2l2-5 4-7 6-13 8-24h2l1-7 3-8 3-9 4-10h3z" fill="#1B1E22"/>
<path transform="translate(1040,464)" d="m0 0h23l1 1v99l-2 3-15-11-7-4-1-6v-81z" fill="#F8F8F8"/>
<path transform="translate(636,727)" d="m0 0 3 2h5v2h14l6 1v-1h9l33 6 56 8v1h-10l-25-3v2l5 1 1 3 28 2 36 3 15 1 6 1 25 1 11 4v1h-19l-10-1-40-2-15-2-1 34-1 3-4 1-1-5v-18l1-17-17-1 2 34 1 7-10-1-32-5-20-3-52-10-5-3v-1l9 1 29 6 37 6 36 5 2 1-1-10v-27l-12-1-24-3-31-6-23-5-12-2-2-1v-2h-3z" fill="#000000"/>
<path transform="translate(1264,391)" d="m0 0h1l1 407 1 119 1 3h-3l2 3 1 8h-2v27l-3 2h-158v-1l127-1v-1l6-1 3 1v-2l10 1v-2h7l-2-4-2-2 1-19 1-13 2-7 1-10 2 4 1 5 3 6-1-109v-357h-2l-1 7-3 1v14l-1 4-1 263-1 68h-1v-203l1-172 1-8 1-2 1-4 3-4v-5h2v-15z" fill="#000000"/>
<path transform="translate(513,380)" d="m0 0 7 2v8l-1 4h-2l1 18 2 2h1l1-24h1l1 41 6 10 8 7 4 3 6 1 119 1-3 3h-5l-1 5h-10l-1 1h5v1l-98 1-12-1-9-4-9-6-8-11-3-7z" fill="#131519"/>
<path transform="translate(838,224)" d="m0 0h8l8 3 8 6 5 6 3 8v89h-11l-1-85-3-7-6-5-3-1h-9l-8 4-4 8-1 18-2 1-10-1v-17l2-9 4-6 7-7 9-4z" fill="#F9F9F9"/>
<path transform="translate(837,237)" d="m0 0h9l7 4 5 6 1 4v85h-1l-1-34-2-4-1-6-2-4-1 15v21l-1 3 2 1h-2v6 3l-3-1v-89l-10 1-2 31-1 1-15 1h-12l-6-2-2-5v-14l2-17 2-2h2v11h1v22l2-1 1-3 4-2h10l1-18 4-8 6-4z" fill="#000000"/>
<path transform="translate(465,929)" d="m0 0 7 1 3 5v14h148l-4 1 1 5 2 1-1 1 3 2h-159z" fill="#111317"/>
<path transform="translate(1377,804)" d="m0 0h1v155h-7l-102-27-2-2-1-7-1-3 10 1 88 25 3 2 5 1-2-8v-36l1-13 3-5 1-7h1l1 22z" fill="#17191D"/>
<path transform="translate(465,469)" d="m0 0h1l1 434 3 1v-13l1-1v-18l2-8 1-25v-8l2-5 1-36h1v126l113 1v1l-114 1-3 1 3 3v5h149v1h-149l-1 19h150v1h-151l-1-14-2-4-5-1v-8l-2-3z" fill="#000000"/>
<path transform="translate(758,941)" d="m0 0 5 2 5 9 4 8 14 43 11 31 10 24 12 28 2 4v2l3-1 4 2v3l-1 1v5l1 3-2 3-2-1-1-1h-2l-1-2-3 2-10-19-12-27-8-19-9-24-3-9v-9l-3-9-2-13-3-18-9-16z" fill="#000000"/>
<path transform="translate(836,381)" d="m0 0 1 4 3-1v49l-1 3 2 1h3l-1 6-6 8-9 7-10 4h-103l-1-2 2-1-4-3h-8l-1-3 115-1 5-2 3-5 6-8 2-6z" fill="#111317"/>
<path transform="translate(477,918)" d="m0 0h127l15 2 6 1 2-1v10h3l1 5-2 2v-3h-2l-1-6h-149v-5l-3-1-1-3z" fill="#101216"/>
<path transform="translate(1105,949)" d="m0 0h152l2 5-2 1-6-1v2h-7l-3-1v2l10 1v1h-146z" fill="#101216"/>
<path transform="translate(367,339)" d="m0 0 17 4 50 14 30 8v2l5 1-1 4 2 6v4l-4-1-2-4-34-9-35-9-29-8-2-1v73h-1l-1-26h-1l-2-19-2-4 1-16 1-2v-11h3l-2-1 2-4 1 1z" fill="#181A1E"/>
<path transform="translate(1211,368)" d="m0 0h19l-2 2 8 1h15l3 7v1h-35v48h-1l-1-8-3 6h-3v3h2v-2l3-1-2 4-4 4-2 3-1 3-5 3 2-4 1-3 1-12v-43l-300-1v-1h301v-4h2v-2l-70-1h-37v-1l20-1h82z" fill="#1F2327"/>
<path transform="translate(885,379)" d="m0 0h1l1 14h1v18h2l1-9v-7l1-3h3l1 33 1 9 3 9 6 7 7 4 7 1h18l13-2 46 1 8 1 6 2h4l-1 3-23 1v2h-75l-11-4-9-6-6-7-4-8-1-4z" fill="#131519"/>
<path transform="translate(1375,336)" d="m0 0h3v53h-1l-1-37-1 38h-1l-1-36-2-7-2 6-1-4h-3v2l-21 5-52 15-19 5h-6l-1 4h-1v-5l2-4-2-2v-5l7-1 54-14 32-9z" fill="#16191D"/>
<path transform="translate(747,367)" d="m0 0h134l63 1 36 1-1 2-29 1h-65l-35 1-7-1h-53l-54-1-32-1h-132l-46-1v-1h128z" fill="#1F2327"/>
<path transform="translate(1105,917)" d="m0 0h115l12 1 2 2 14 2 3 3v2l-84 1h-63l1-7-1-2z" fill="#101216"/>
<path transform="translate(804,296)" d="m0 0h9l8 4 4 5 2 5 1 6v17l-2 1v-4l-5 3h-3l-1 2-1-22-1-5-14 1 1 29h-3v-16h-2l1-15-6 2 1 9 2 3 1 15-1 1 2 2-10 1h-23v-2h-21v-1h46v-15h-29l-2-1v-9l1-2 30-1 5-8 7-4z" fill="#000000"/>
<path transform="translate(545,558)" d="m0 0h39l1 3v21h-46l-7-3-3-9 2-7 5-4z" fill="#F7F7F7"/>
<path transform="translate(1147,558)" d="m0 0h44l7 2 3 4 1 8-3 7-5 3h-47z" fill="#F8F8F8"/>
<path transform="translate(1217,410)" d="m0 0h1v24l-5 12-7 8-11 7-7 2h-103v-1l8-2 2-3 7-3h75l13-2 11-10 6-4 1-4 5-5 2-3h-2v2l-3 1 1-4h3l2-6z" fill="#000000"/>
<path transform="translate(793,307)" d="m0 0h5v8l-1 7h2l1 16 1-1v-28l2-1h12l2 5 1 20 3-1 2-2h3l1 6h20v1l-30 1v1h13l8-1h21l1 2-7 1 45 1v2l-99 1h-10l-7-2v-1l-20-1v-1l29-1 3-2 1-5-1-11-2-3-1-9z" fill="#000000"/>
<path transform="translate(765,1081)" d="m0 0h7l5 4 3 3 8 16 8 9 2 5v8l-6 7-6 5-3 12-4 6-6 3h-9l-5-3-1-2-5 1-5 4-2 1h-6l-2-2v-4h2l1-3 5-3 7-3h8l5 4 4 1 3-1 2-5 1-10 2-4 10-8v-5l-10-5-3-6 1-7 2-3-5-8-3-1-3 6-6-4 1-5z" fill="#000000"/>
<path transform="translate(831,214)" d="m0 0h20l9 3 9 7 7 8 4 8v8l-4 1-1 1h-2l-3-14-3-3-6-7-7-3-3 2-1-1-16 2-10 5-7 7-3 7-1 6v17l8 1v1h-12l-1 4h-2l-1-4v-15h-1v-13l-1-4 6-10 10-9 8-4z" fill="#000000"/>
<path transform="translate(470,467)" d="m0 0h1v9l3 1-2 6h2l1 9 1 7 1 1v326l-3-1v-16l1-34v-153l-1-25v-16l-1-10 1-7-2-1 1-2v-8l-2 4v-6h-2l-1 2v-77l1-8z" fill="#000000"/>
<path transform="translate(1093,729)" d="m0 0 2 1v6l-6 2-50 10h-22l-17 2-6-2v2l-8 1h-13l-5-1 3-3-2-2 11-2 44-6 22-4h8l1 2 11-1z" fill="#000000"/>
<path transform="translate(783,638)" d="m0 0h184l35 1 18 3 15 5 6 3-4 1-9-3-13-4-11-1-144-1h-136l-4 2-2-1-1-2 15-2z" fill="#000000"/>
<path transform="translate(597,599)" d="m0 0 26 1 2 5 1 5 12 6-3 20-2 6-15-8-8-7-6-7-5-10-2-6z" fill="#F8F8F8"/>
<path transform="translate(1190,549)" d="m0 0h9l2 1v2l6 2 4 6 1 3v12l-3 8-5 2-5 5-10 2-32-1-5-3 3-3-7-1v-1l44-1 6-3 3-7-1-8-4-4-5-1-1-2-6-1h-25v-2l-5-1v-3z" fill="#14161A"/>
<path transform="translate(1254,805)" d="m0 0h1v8h2l1 21 2 16h2l1-6h1l1 7v63l-2-1-2-5-1-7-2 14-1 5-2 26h-1v-18h-5l2-1-3-4-14-2-2-2-12-1v-1h34l-1-7z" fill="#000000"/>
<path transform="translate(1105,711)" d="m0 0 4 2 3 31 1 16v18l-3 68-2 18h-1l-1-11h-2l-1-4v-22l2-53h-3v-2l5-1 1-5h-2l-1-3-1-13v-30z" fill="#000000"/>
<path transform="translate(1115,600)" d="m0 0h20l-2 9-5 10-8 10-9 7-10 4-2-4-3-17v-5l7-4h2l2-5 2-4z" fill="#F8F8F8"/>
<path transform="translate(1264,391)" d="m0 0h1v97h-1v-40h-2l-1 7-3 1v14l-1 4-1 263-1 68h-1v-203l1-172 1-8 1-2 1-4 3-4v-5h2v-15z" fill="#000000"/>
<path transform="translate(823,475)" d="m0 0h5l-2 2-4 2 4 1-2 2-13 5-19 12-13 12-4 6-5 5-8 11-5 7h-11l1-5 9-15 7-9 8-7 5-4 3-1 5-5 7-6 16-7 9-4z" fill="#14161A"/>
<path transform="translate(628,963)" d="m0 0h1v8h3l1 5 1 36h1l3 24 2 11 3 9 3 1 1 3 5 5 6 11 5 7 3 7v5l-5-2-11-12-11-14-4-10-4-24-2-23-1-18z" fill="#24272A"/>
<path transform="translate(635,925)" d="m0 0h2l4 80 2 22 3 19 4 16-4-2v-3l-4-1-3-9-2-11-2-19-2-4-1-37-1-3 1-2h-3l-2-3v-8h2l1-6 2 1v-4h2l1 1z" fill="#000000"/>
<path transform="translate(1074,464)" d="m0 0h1v115l-5-3-6-5v-2l-5-1v-2l-5 1-4-5-7-6-2-1v-2l-4-1-18-4-8-2 2-2 11 1 2 1 1-63 1-18h1v13h2l-1 5h2l1 3-3 2 1 3h2v11l-3 3v19l1 21 1 2 6 3 2-4v6l5 2 9 6 8 6 1-4v-87h1l1 12h1l1 83 6 6v-105z" fill="#000000"/>
<path transform="translate(1253,452)" d="m0 0h1l1 123-1 335h-1l-1-166v-276z" fill="#BDBDBD"/>
<path transform="translate(858,1035)" d="m0 0 5 4-1 11-8 18-8 12-8 10-10 8-2-1 2-2-2-2-3-1-3 1-1-3h2v-3l11-9 7-8 7-12 4-12z" fill="#000000"/>
<path transform="translate(1103,849)" d="m0 0 1 4 3-1 1 5h1l-1 31-2 28h148v1l-37 1h-108l-4-1 1 7h-3l-4-1-2 2-1-1v-14h3l1-11v-12l2-33z" fill="#000000"/>
<path transform="translate(917,296)" d="m0 0h9l7 3 2 4-1 1 1 6-4 4-1 10h3v5l-2-1-1 9-2 1-1-29h-12l-1 1v28h-3l-1-12h-2v8l-4 4-3-1v-23l3-9 5-6z" fill="#000000"/>
<path transform="translate(668,1077)" d="m0 0h3l2 7-1 2h2l2 10h2l8 28 10 30 3 6-1 2-5-5-1-6-4 3 2 4-2 2-8-21-12-36 1-4v-3l-2-11 1-2z" fill="#212529"/>
<path transform="translate(1133,598)" d="m0 0 6 1 5 3v8l-5 12-8 11-7 7-11 7-5 2h-7l-1 3-2-7 2-3h3l2-4 12-7 8-9 6-10 3-9z" fill="#16191D"/>
<path transform="translate(653,462)" d="m0 0h5v2l5 1-1 10-1 4v10l1 14 2 6-1 6 1 3 1 15v17l-1 12v2 5l-2-2v2l5 1v4l-5 1-3-5-1 2-1-38-1-9v-51l1-11z" fill="#000000"/>
<path transform="translate(851,275)" d="m0 0h1l1 13 2-1 1 11 2 1 1 37 9 1-4 3h27l33 1 6-1h9v-7h1v6h5l-2 1 1 3-46 1v-2h-48l-2-2 7-1h-17l-14 1h-8l1-3 33-1-1-4 1-10v-20z" fill="#000000"/>
<path transform="translate(847,250)" d="m0 0 4 5 1 4h2l2-4 1 1 1-5h1v85h-1l-1-34-2-4-1-6-2-4-1 15v21l-1 3 2 1h-2v6 3l-3-1z" fill="#000000"/>
<path transform="translate(693,464)" d="m0 0 7 1 1 5-1 3 2 1-2 6h-2l1 4v1l2 1v5l-2 2 1 2h-2v7l2 2 1 13v33l-8 3z" fill="#101216"/>
<path transform="translate(747,367)" d="m0 0h134v1l-104 1v1h-205l-46-1v-1h128z" fill="#565E64"/>
<path transform="translate(770,752)" d="m0 0 42 3 6 1 25 1 11 4v1h-19l-10-1-40-2-15-2-1 34-1 3-4 1-1-5v-18l1-18z" fill="#000000"/>
<path transform="translate(719,547)" d="m0 0h7 1l3 1-1 2-5 1 1 2-8 3-14 5-15 8-10 9-4 3-5 1-3 1-4 5-2 5-3-2 2-4 2-2-1-2 2-3h2l2-4 4-2 3-5 4-3h2v-2l5-4 6-2v-2l7-2v-2l2-1 18-2z" fill="#15171B"/>
<path transform="translate(1026,553)" d="m0 0h9 2 4v2l5 2 9 9h4v2l5 1 5 5 5 4 5 5 2 10 4 6-1 7-3-2v-2h-2l-3-7-1-4-2 1h-3l-11-13-10-8-7-5-3-5-11-6z" fill="#14171A"/>
<path transform="translate(802,241)" d="m0 0h3v11h1v22l2-1 1-3 4-2h10l1-18h1l1 10 1 4-1 6h2l1-2 3 1 1 6 1-9h1v13l-1 1-15 1h-12l-6-2-2-5v-14l2-17z" fill="#000000"/>
<path transform="translate(1133,557)" d="m0 0 2 1v28l-1 1h-24l2-10 6-9 9-8z" fill="#F5F5F5"/>
<path transform="translate(705,455)" d="m0 0h7l5 5-2 1 98 1v1l-110 1 1 41v36l-1 8h-2l-1-39-2-7-1-5 1-5-1-2h4l-2-1v-5h-2l1-5h2l1-6-1-4v-4l-2-1 1-9z" fill="#282C30"/>
<path transform="translate(1063,1090)" d="m0 0 1 4-3 8v8l-12 36-2 5-3-3-5 2 1 3-8 15-3 5-4 3 2-5 4-7 6-13 8-24h2l1-7 3-8 3-9 4-10h3z" fill="#23272B"/>
<path transform="translate(597,558)" d="m0 0 7 2 8 6 6 8 3 9v4h-24l-1-28z" fill="#F8F8F8"/>
<path transform="translate(985,366)" d="m0 0h181l37 1v1l-158 1-164-1v-1z" fill="#BDBDBD"/>
<path transform="translate(807,297)" d="m0 0h9l6 4 4 6 2 9v17l-2 1v-4l-5 3h-3l-1 2-1-22-1-5-14 1-1 2-2-7 3-4h2v-2h2l1 1z" fill="#000000"/>
<path transform="translate(545,582)" d="m0 0h40l2 4-1 9-46-1-1-3 5-3-1-3 1-1h8l7 2 3-2-17-1z" fill="#000000"/>
<path transform="translate(819,1103)" d="m0 0 2 1 1-1 3 2 1 2 2-2 3 7 2 12v13l-3 16-4 11-8 13-7 8-1-3 5-6h2l1-6h2v-3h2l1-6 3-12 1-3-1-2h2v-3l-3-2v-6l3 3-3-7v-7l-3 1-2-9-2-5z" fill="#000000"/>
<path transform="translate(844,375)" d="m0 0 6 1-2 4-1 51-2 8-2-2-2 2-2-3v-56l1-2h2v-2z" fill="#000000"/>
<path transform="translate(1097,1037)" d="m0 0h1v12l-3 11-6 11-11 14-7 8-4-1 1-5 8-16 6-13 1-3 4 1 1-6 2 1v2l5 2 1-14z" fill="#000000"/>
<path transform="translate(803,308)" d="m0 0h12l1 2v26l-1 1h-14v-28z" fill="#F7F7F7"/>
<path transform="translate(908,1104)" d="m0 0 1 3 1 13-2 11v9l2 12 4 8-1 2-1-3-5-2-3-1-1 2-4-14v-26l2-8 3-1v3zm0 55 2 1z" fill="#000000"/>
<path transform="translate(915,308)" d="m0 0h10l3 3v26h-14l-1-1v-26z" fill="#F7F7F7"/>
<path transform="translate(783,1143)" d="m0 0 1 4-4 8-7 4h-9l-5-3-1-2-5 1-5 4-2 1h-6l-2-2v-4h2l1-3 5-3 7-3h8l5 4 4 1 3-1 2-5 4 2 2-1 2 1z" fill="#282D31"/>
<path transform="translate(906,378)" d="m0 0h301l1 1v59l-6 4 2-4 1-3 1-12v-43l-300-1z" fill="#636667"/>
<path transform="translate(926,481)" d="m0 0 9 6 5 4 3 3 2 7 10 11 3 3h4l12 12 6 10 3 2v2h-9l-4-7-11-14-9-10-9-9-13-10-8-5 2-1h2l-1-3z" fill="#131519"/>
<path transform="translate(1044,1146)" d="m0 0 2 3-1 7-8 16-4 6-4-1-2 4-4 4-5 4h-2v2l-4 3-9 4-6 2 1-2-1-1v-2l11-6 12-9 3-4 5-3 7-12 1-4h2l1-7 4-2z" fill="#171A1E"/>
<path transform="translate(1074,464)" d="m0 0h1v115l-5-3-6-5-1-7v-89h1l1 12h1l1 83 6 6v-105z" fill="#000000"/>
<path transform="translate(755,755)" d="m0 0 8 1v14l-1 22-1 1h-6l-2-18v-18h2z" fill="#49789A"/>
<path transform="translate(974,756)" d="m0 0 4 1-1 35-8 1-1-5v-31z" fill="#4A7798"/>
<path transform="translate(665,666)" d="m0 0 2 1-2 4h-2l-1 4-8 7-8 8 2 7 2 1v-2l3-1-1 4-9 13-3 5-2-3-1-6v-9l4-9 3-1 2-4z" fill="#000000"/>
</svg>
